<svg width="378" height="265" viewBox="0 0 378 265" fill="none" xmlns="http://www.w3.org/2000/svg">
<g clip-path="url(#clip0_106_34)">
<path fill-rule="evenodd" clip-rule="evenodd" d="M200.147 48.4751C228.168 59.016 250.209 81.7631 259.782 110.243L248.185 113.46C246.8 105.747 247.46 93.8003 243.529 88.4939C241.757 86.1013 238.378 83.542 234.346 82.8703C232.525 82.5669 221.88 82.4765 220.256 82.8703C216.133 83.8685 215.297 89.3787 219.154 91.4401C221.81 92.8599 229.669 91.4169 233.148 92.2392C237.741 93.3255 237.482 102.502 238.239 109.604L238.663 115.183C238.309 117.194 223.17 120.193 210.149 123.679C210.48 120.684 210.651 117.641 210.651 114.558C210.651 110.627 210.375 106.762 209.845 102.979C213.104 101.726 212.731 97.4992 212.724 93.4876C212.696 74.1777 213.19 63.7457 202.734 51.2777C201.942 50.3327 201.081 49.3947 200.147 48.4775V48.4751ZM262.316 119.146C264.053 126.528 264.977 134.222 264.977 142.134C264.977 145.824 264.775 149.469 264.384 153.055L257.472 153.099C249.621 141.687 237.734 133.27 223.872 129.907C227.279 128.981 230.709 128.036 234.07 127.086C240.08 125.386 252.657 121.759 262.318 119.146H262.316ZM262.941 162.287L262.837 162.787C262.765 162.621 262.691 162.456 262.617 162.292L262.941 162.287ZM203.422 80.7116C197.057 66.5436 186.82 54.4902 174.056 45.9019C187.149 47.4097 199.325 56.5007 202.503 71.4678C203.133 74.4394 203.367 77.5917 203.422 80.7093V80.7116ZM153.699 193.169C154.296 197.613 155.408 201.896 156.969 205.954L104.376 205.961C92.2809 205.963 91.7736 206.482 93.0545 194.348C93.2143 192.835 93.3718 191.311 93.5316 189.78C104.01 194.584 115.665 197.261 127.945 197.261C136.939 197.261 145.595 195.821 153.699 193.166V193.169ZM161.662 215.429C168.256 226.118 178.269 234.473 190.178 238.966C182.114 241.062 173.653 242.181 164.932 242.181C138.583 242.181 114.616 231.995 96.7511 215.344C97.3672 215.397 98.0041 215.427 98.6643 215.434C106.734 215.515 114.857 215.425 122.931 215.427C135.841 215.429 148.751 215.429 161.662 215.429ZM83.2687 199.93C77.5778 191.902 73.0358 182.998 69.8951 173.46C74.2703 177.773 79.125 181.602 84.3688 184.861C83.7736 190.343 83.3127 195.779 83.2687 199.93Z" fill="#346CD4"/>
<path fill-rule="evenodd" clip-rule="evenodd" d="M127.943 31.852C138.898 31.852 149.356 33.9829 158.924 37.8532C147.223 41.1167 139.047 48.8411 134.076 57.0612C130.521 62.9396 128.591 69.4295 128.226 77.3439C127.994 82.3422 126.942 99.4656 129.622 102.002C132.557 104.781 137.015 102.919 137.506 99.0974C138.815 88.9109 134.88 75.5002 141.323 63.3635C148.517 49.8139 161.699 44.4728 174.063 45.8996C175.92 47.1503 177.724 48.4728 179.471 49.8648C170.16 58.5482 163.304 69.8302 160.064 82.5576C151.746 82.6387 145.182 82.7545 144.853 82.8517C139.806 84.3364 140.432 91.4563 145.768 92.0192C147.144 92.1651 152.064 92.2276 158.343 92.2346C158.104 94.5415 157.981 96.8854 157.981 99.2549C157.981 104.174 158.509 108.971 159.508 113.592C159.285 113.761 159.063 113.937 158.841 114.118C155.904 116.503 153.428 119.457 151.677 123.908C150.435 123.561 148.55 122.644 147.332 122.109C146.014 121.529 144.091 120.33 142.646 121.351C140.337 122.982 142.141 127.392 143.468 129.032C143.735 129.36 143.969 129.56 144.168 129.886L143.364 130.336C140.775 131.952 142.088 137.72 152.923 137.087C153.222 137.532 153.729 138.25 154.088 138.625C154.614 139.176 155.204 139.385 155.311 140.318C155.628 143.061 152.205 141.147 145.833 147.955C142.491 151.526 139.568 158.127 140.839 165.043C143.151 177.623 157.995 181.914 169.259 182.459C171.165 182.551 173.129 182.561 175.121 182.482C161.741 191.793 145.483 197.257 127.945 197.257C115.665 197.257 104.01 194.577 93.5316 189.775C94.1246 184.061 94.7268 178.264 95.4841 172.647C98.7662 148.288 100.811 121.824 103.931 97.3695C105.099 88.216 115.69 93.8119 122.704 91.7852C125.849 90.875 127.373 86.868 124.661 84.1256C122.062 81.4968 107.169 82.1963 103.31 83.8408C96.9202 86.5623 95.2062 90.4395 94.3562 98.7291C93.6243 105.884 92.8136 112.941 91.9705 120.11C90.2774 134.53 88.8205 148.879 87.0788 163.362C86.6086 167.278 85.3208 176.119 84.3712 184.851C60.8829 170.262 45.2418 144.235 45.2418 114.551C45.2418 68.8737 82.2704 31.8474 127.945 31.8474L127.943 31.852ZM160.569 117.831C160.796 118.63 161.039 119.424 161.296 120.209C160.701 122.176 158.848 124.698 157.083 125.087C154.519 125.65 155.779 121.96 156.369 120.99C157.032 119.904 158.41 118.173 159.883 117.872C160.147 117.819 160.374 117.807 160.569 117.831ZM187.927 132.86C188.972 132.413 190.033 131.999 191.107 131.614C185.634 136.659 184.288 143.647 186.234 149.69C185.465 149.659 184.694 149.604 183.925 149.52C182.47 149.365 181.734 149.175 180.951 148.348C180.231 147.589 179.818 146.289 180.249 145.022C180.705 143.688 182.537 142.766 184.307 140.508C186.141 138.167 187.341 135.556 187.927 132.86ZM208.349 133.967C207.54 137.326 206.526 140.605 205.322 143.79C204.93 144.117 204.525 144.441 204.045 144.779C202.311 146.002 200.631 146.855 198.549 147.7C197.736 148.029 196.895 148.318 196.034 148.566C194.299 145.622 194.287 141.801 197.013 139.026C199.381 136.617 203.837 135.153 208.349 133.967ZM159.058 120.825C157.192 120.503 155.461 123.781 156.346 124.439C157.328 125.171 159.719 122.567 159.058 120.825Z" fill="#7933AC"/>
<path fill-rule="evenodd" clip-rule="evenodd" d="M225.502 31.7362C262.793 31.7362 293.023 61.9668 293.023 99.2572C293.023 103.269 292.671 107.197 292 111.016L278.306 107.28C278.309 104.024 278.487 105.925 283.678 101.513C285.341 100.1 287.015 97.5872 287.97 94.8472C290.26 88.2693 288.259 82.0226 284.789 77.6821C276.898 67.8129 261.037 70.3745 255.87 80.8413C250.517 91.6833 257.213 95.5282 261.248 92.8715C264.632 90.6433 261.973 80.4615 271.847 80.9085C278.36 81.2026 282.045 89.6266 277.774 94.1755C273.368 98.8681 269.044 97.1333 268.88 107.711L248.18 113.455C246.795 105.742 247.455 93.7957 243.525 88.4893C241.753 86.0967 238.373 83.5373 234.341 82.8656C232.52 82.5622 221.875 82.4719 220.252 82.8656C216.129 83.8639 215.293 89.3741 219.149 91.4355C221.806 92.8553 229.665 91.4123 233.143 92.2346C237.736 93.3208 237.477 102.498 238.234 109.599L238.658 115.179C238.112 118.289 202.19 123.76 193.449 129.745C192.597 130.329 191.818 130.954 191.107 131.609C190.033 131.994 188.972 132.409 187.927 132.856C189.206 126.961 187.543 120.659 183.126 115.859C180.96 113.506 176.583 110.532 171.811 110.203C166.218 109.817 162.845 111.046 159.505 113.59C158.505 108.969 157.979 104.172 157.979 99.2526C157.979 96.8831 158.102 94.5391 158.34 92.2322C173.356 92.2508 196.145 91.9566 196.851 91.718C201.095 90.2843 200.847 83.3937 195.624 82.7058C193.134 82.3792 174.1 82.4163 160.061 82.553C163.57 68.7602 171.325 56.6674 181.852 47.7386C191.723 51.3379 199.969 59.5325 202.5 71.4608C205.657 86.333 198.906 105.675 209.241 103.16C213.146 102.21 212.726 97.7239 212.719 93.4807C212.692 74.1707 213.185 63.7387 202.73 51.2708C199.693 47.6483 195.61 44.1254 190.66 41.4039C200.831 35.2637 212.754 31.7315 225.5 31.7315L225.502 31.7362ZM289.679 120.307C285.364 133.467 277.114 144.842 266.323 153.046L257.475 153.101C249.623 141.692 237.739 133.272 223.876 129.907C227.281 128.983 230.711 128.036 234.07 127.086C242.751 124.629 265.134 118.155 272.634 116.524C273.825 116.265 281.426 118.127 289.681 120.307H289.679ZM161.296 120.214C161.039 119.426 160.798 118.634 160.569 117.835C161.541 117.951 161.671 118.972 161.296 120.214Z" fill="#FBB342"/>
<path fill-rule="evenodd" clip-rule="evenodd" d="M223.867 129.907C237.732 133.27 249.621 141.687 257.475 153.099C243.323 153.185 225.178 153.277 213.637 153.196C213.454 150.004 212.583 147.033 210.915 144.112C210.419 143.246 209.097 141.296 208.446 140.835C207.867 141.182 207.091 142.317 206.419 142.871C205.623 143.526 204.97 144.131 204.045 144.782C202.311 146.004 200.631 146.857 198.549 147.702C197.736 148.031 196.895 148.321 196.034 148.568C194.299 145.625 194.287 141.803 197.013 139.028C200.592 135.387 208.949 133.902 215.045 132.277C217.924 131.51 220.886 130.715 223.865 129.907H223.867ZM262.619 162.289C265.764 169.372 267.513 177.213 267.513 185.46C267.513 217.032 241.919 242.628 210.345 242.628C189.762 242.628 171.723 231.749 161.657 215.427L219.031 215.425C226.876 215.425 235.031 215.64 242.839 215.404C250.417 215.175 255.242 211.36 257.262 205.44C259.184 199.809 254.341 170.938 253.753 162.479C256.692 162.394 259.647 162.333 262.617 162.289H262.619ZM156.967 205.952C154.523 199.591 153.18 192.682 153.18 185.46C153.18 183.316 153.303 181.201 153.532 179.116C158.537 181.238 164.249 182.22 169.254 182.461C185.982 183.269 207.202 177.761 212.43 162.329C223.003 162.167 234.517 161.743 244.171 162.47C245.016 169.537 245.843 176.678 246.656 183.742C249.651 209.769 251.779 205.942 224.74 205.942L156.965 205.952H156.967ZM186.234 149.692C185.465 149.662 184.694 149.606 183.925 149.523C182.47 149.368 181.734 149.178 180.951 148.351C180.231 147.591 179.818 146.292 180.249 145.025C180.705 143.691 182.537 142.769 184.307 140.511C186.141 138.169 187.343 135.559 187.927 132.863C188.972 132.415 190.033 132.001 191.107 131.616C185.634 136.661 184.286 143.651 186.234 149.694V149.692Z" fill="#EE6B6C"/>
<path fill-rule="evenodd" clip-rule="evenodd" d="M187.39 0C198.044 0 206.681 8.637 206.681 19.2914C206.681 29.9458 198.044 38.5828 187.39 38.5828C176.735 38.5828 168.098 29.9458 168.098 19.2914C168.098 8.637 176.735 0 187.39 0Z" fill="#EE6B6C"/>
<path fill-rule="evenodd" clip-rule="evenodd" d="M307.187 167.64C312.514 167.64 316.834 171.959 316.834 177.287C316.834 182.614 312.516 186.934 307.187 186.934C301.86 186.934 297.54 182.614 297.54 177.287C297.54 171.959 301.857 167.64 307.187 167.64Z" fill="#EE6B6C"/>
<path fill-rule="evenodd" clip-rule="evenodd" d="M49.9135 214.839C55.2407 214.839 59.5603 219.158 59.5603 224.486C59.5603 229.813 55.243 234.132 49.9135 234.132C44.5863 234.132 40.2666 229.813 40.2666 224.486C40.2666 219.158 44.584 214.839 49.9135 214.839Z" fill="#FBB342"/>
<path fill-rule="evenodd" clip-rule="evenodd" d="M7.71748 131.014C11.9792 131.014 15.435 134.47 15.435 138.732C15.435 142.993 11.9792 146.449 7.71748 146.449C3.45573 146.449 3.8147e-06 142.993 3.8147e-06 138.732C3.8147e-06 134.47 3.45573 131.014 7.71748 131.014Z" fill="#7933AC"/>
<path fill-rule="evenodd" clip-rule="evenodd" d="M358.661 98.0435C369.316 98.0435 377.953 106.681 377.953 117.335C377.953 126.715 371.257 134.532 362.383 136.267C358.645 129.347 349.668 126.183 340.498 123.855C339.766 121.819 339.368 119.623 339.368 117.335C339.368 106.681 348.005 98.0435 358.659 98.0435H358.661Z" fill="#346CD4"/>
<path fill-rule="evenodd" clip-rule="evenodd" d="M151.677 123.913C150.435 123.565 148.55 122.648 147.332 122.113C146.014 121.534 144.091 120.334 142.646 121.356C140.337 122.986 142.141 127.396 143.468 129.036C143.735 129.365 143.969 129.564 144.168 129.891L143.364 130.34C140.775 131.957 142.088 137.724 152.923 137.092C153.222 137.537 153.729 138.255 154.088 138.63C154.614 139.181 155.204 139.389 155.311 140.323C155.628 143.065 152.205 141.152 145.833 147.959C142.491 151.531 139.568 158.132 140.839 165.048C143.151 177.627 157.995 181.919 169.259 182.463C185.986 183.272 207.207 177.764 212.435 162.331C209.801 162.373 207.225 162.396 204.752 162.384C195.066 162.331 188.476 156.638 186.239 149.694C185.47 149.664 184.698 149.608 183.929 149.525C182.475 149.37 181.738 149.18 180.955 148.353C180.235 147.593 179.823 146.294 180.254 145.027C180.71 143.693 182.542 142.771 184.312 140.513C190.158 133.05 189.569 122.861 183.13 115.869C180.965 113.516 176.587 110.542 171.816 110.213C165.852 109.8 162.41 111.227 158.843 114.125C155.906 116.51 153.43 119.463 151.679 123.915L151.677 123.913ZM213.637 153.196C213.454 150.004 212.583 147.033 210.915 144.112C210.419 143.246 209.097 141.296 208.446 140.835C207.867 141.182 207.091 142.317 206.419 142.871C205.623 143.526 204.97 144.131 204.045 144.782C202.311 146.004 200.631 146.857 198.549 147.702C197.736 148.031 196.895 148.321 196.034 148.568C197.403 150.892 199.844 152.668 202.857 152.948C204.279 153.08 208.235 153.157 213.637 153.194V153.196ZM159.883 117.875C158.41 118.176 157.032 119.906 156.369 120.992C155.779 121.963 154.519 125.652 157.083 125.089C160.186 124.406 163.57 117.122 159.883 117.875Z" fill="#FEDC58"/>
<path fill-rule="evenodd" clip-rule="evenodd" d="M159.058 120.828C157.192 120.506 155.461 123.783 156.346 124.441C157.328 125.173 159.719 122.569 159.058 120.828Z" fill="#FEDC58"/>
<path fill-rule="evenodd" clip-rule="evenodd" d="M268.882 107.716L248.182 113.46C246.797 105.747 247.457 93.8003 243.527 88.4939C241.755 86.1013 238.376 83.542 234.343 82.8703C232.523 82.5669 221.878 82.4765 220.254 82.8703C216.131 83.8686 215.295 89.3787 219.151 91.4401C221.808 92.8599 229.667 91.4169 233.146 92.2392C237.739 93.3255 237.479 102.502 238.237 109.604L238.661 115.183C238.114 118.294 202.192 123.765 193.451 129.75C178.498 139.987 185.539 162.28 204.75 162.382C217.155 162.449 232.115 161.564 244.175 162.472C245.021 169.539 245.848 176.68 246.661 183.744C249.655 209.771 251.784 205.945 224.745 205.945L104.376 205.961C92.2809 205.963 91.7736 206.482 93.0545 194.348C93.8119 187.186 94.5229 179.774 95.4818 172.652C98.7638 148.293 100.809 121.828 103.929 97.3741C105.096 88.2206 115.688 93.8165 122.701 91.7899C125.847 90.8796 127.371 86.8726 124.659 84.1303C122.06 81.5014 107.167 82.2009 103.308 83.8454C96.9179 86.5669 95.2039 90.4442 94.3539 98.7337C93.6219 105.888 92.8113 112.946 91.9682 120.114C90.2751 134.535 88.8182 148.883 87.0765 163.366C86.106 171.438 81.6682 200.418 83.8709 206.262C86.0156 211.955 90.8171 215.355 98.6643 215.432C106.734 215.513 114.857 215.422 122.931 215.425C154.963 215.429 187.001 215.425 219.036 215.425C226.881 215.425 235.036 215.64 242.844 215.404C250.422 215.175 255.247 211.36 257.266 205.44C259.189 199.809 254.346 170.938 253.757 162.479C274.383 161.882 295.847 162.44 316.567 162.44C325.962 162.44 338.918 163.174 347.884 162.347C355.961 161.604 362.835 154.866 363.956 147.158C366.875 127.095 343.342 124.934 327.794 120.777L278.309 107.28C278.311 104.024 278.489 105.925 283.68 101.513C285.343 100.1 287.018 97.5872 287.972 94.8472C290.263 88.2693 288.261 82.0226 284.792 77.6821C276.901 67.8129 261.039 70.3745 255.872 80.8413C250.519 91.6833 257.215 95.5282 261.25 92.8715C264.634 90.6433 261.975 80.4615 271.849 80.9085C278.362 81.2026 282.047 89.6266 277.776 94.1755C273.371 98.8681 269.046 97.1333 268.882 107.711V107.716ZM144.851 82.8541C139.804 84.3387 140.429 91.4586 145.766 92.0215C150.431 92.5148 195.848 92.0632 196.851 91.7227C201.095 90.289 200.847 83.3984 195.624 82.7105C191.659 82.1893 145.729 82.5947 144.851 82.8541ZM165.541 36.5538C150.25 38.3674 139.934 47.3726 134.074 57.0635C130.519 62.9419 128.589 69.4319 128.223 77.3462C127.992 82.3445 126.94 99.468 129.62 102.004C132.554 104.784 137.013 102.921 137.504 99.0997C138.813 88.9132 134.878 75.5025 141.321 63.3658C156.131 35.4675 196.326 42.3697 202.5 71.4678C205.657 86.3399 198.906 105.682 209.241 103.167C213.146 102.217 212.726 97.7308 212.719 93.4876C212.692 74.1777 213.185 63.7457 202.73 51.2777C195.485 42.6384 182.303 34.5689 165.539 36.5561L165.541 36.5538ZM272.63 116.522C265.13 118.153 242.746 124.629 234.065 127.084C227.765 128.867 221.215 130.632 215.043 132.277C208.946 133.902 200.587 135.385 197.011 139.028C192.131 143.994 196.02 152.311 202.853 152.948C209.282 153.548 267.555 152.988 277.074 152.988C283.752 152.988 346.124 153.805 349.628 152.228C355.942 149.391 356.815 140.823 350.099 137.013C346.383 134.905 317.936 127.832 311.803 126.292C306.568 124.978 275.154 115.968 272.627 116.52L272.63 116.522Z" fill="#010101"/>
<path d="M25.061 253.021C25.9203 253.021 26.724 253.171 27.4744 253.47C28.2202 253.769 28.8734 254.179 29.427 254.702C29.9805 255.223 30.4136 255.833 30.7286 256.525C31.0436 257.215 31.2011 257.957 31.2011 258.749C31.2011 259.552 31.0297 260.294 30.687 260.975C30.3442 261.655 29.8925 262.241 29.325 262.735C28.7576 263.228 28.1091 263.613 27.3771 263.888C26.6429 264.162 25.8878 264.301 25.105 264.301H4.63235V259.775H26.5271V257.623H9.63527C8.83156 257.623 8.06259 257.484 7.3191 257.204C6.57793 256.926 5.92477 256.539 5.35499 256.041C4.7829 255.543 4.33124 254.948 3.98845 254.26C3.64566 253.572 3.47426 252.817 3.47426 251.997C3.47426 251.411 3.56459 250.86 3.74757 250.355C3.93055 249.85 4.18301 249.389 4.50264 248.977C4.81996 248.562 5.19518 248.194 5.63293 247.877C6.06606 247.559 6.53392 247.291 7.03653 247.073C7.53914 246.853 8.06491 246.686 8.60921 246.568C9.16046 246.454 9.70939 246.397 10.2606 246.397H29.9713V250.825H8.4216V253.028H25.061V253.021ZM33.6401 246.269H59.3102V250.844H48.7855V264.298H44.2342V250.844H33.6377V246.269H33.6401ZM72.0283 258.971L61.7445 246.246H67.5465L74.1846 254.489L80.8668 246.246H86.5623L76.5518 258.971V264.301H72.026V258.971H72.0283ZM114.268 259.578V264.298H94.5947C93.886 264.298 93.1958 264.148 92.5241 263.847C91.8524 263.545 91.2571 263.138 90.7337 262.628C90.2148 262.119 89.7956 261.528 89.4783 260.854C89.1587 260.18 89.0012 259.481 89.0012 258.746V246.197H93.7215V259.58H114.266L114.268 259.578ZM116.714 250.225C116.714 249.646 116.842 249.095 117.096 248.574C117.349 248.053 117.687 247.592 118.111 247.2C118.53 246.804 119.012 246.492 119.554 246.255C120.096 246.024 120.654 245.906 121.238 245.906C122.542 245.906 123.802 246.494 125.013 247.664L137.31 259.772V246.32H141.909V259.506C141.909 260.199 141.808 260.852 141.604 261.468C141.405 262.079 141.106 262.614 140.724 263.071C140.337 263.532 139.864 263.895 139.308 264.164C138.75 264.437 138.118 264.572 137.409 264.572C137.066 264.572 136.749 264.539 136.455 264.47C136.158 264.405 135.869 264.298 135.575 264.152C135.285 264.009 134.979 263.826 134.662 263.606C134.345 263.381 133.99 263.117 133.601 262.802L121.289 250.802V264.298H116.714V250.228V250.225ZM149.52 264.301H144.351L151.376 250.714C151.73 250.021 152.077 249.401 152.411 248.849C152.745 248.3 153.108 247.83 153.5 247.448C153.891 247.061 154.331 246.763 154.824 246.554C155.318 246.346 155.904 246.244 156.582 246.244C157.243 246.244 157.81 246.35 158.278 246.561C158.746 246.769 159.17 247.075 159.542 247.467C159.918 247.863 160.267 248.342 160.594 248.914C160.921 249.486 161.27 250.126 161.646 250.844L168.67 264.298H163.677L160.965 259.578H152.006L149.518 264.298L149.52 264.301ZM154.361 254.955H158.639L156.511 251.11L154.361 254.955ZM203.216 246.246H212.567L197.027 255.291L212.689 264.301H203.219L195.047 259.629C194.663 259.413 194.317 259.205 194.012 258.997C193.706 258.788 193.433 258.568 193.192 258.341C192.956 258.107 192.742 257.855 192.555 257.581C192.367 257.303 192.2 256.991 192.057 256.643V264.301H187.017V246.246H192.057V254.026C192.224 253.683 192.411 253.375 192.61 253.093C192.814 252.815 193.046 252.555 193.303 252.31C193.565 252.069 193.861 251.833 194.197 251.606C194.531 251.381 194.91 251.14 195.344 250.897L203.216 246.248V246.246ZM220.296 264.301H215.126L222.151 250.714C222.505 250.021 222.853 249.401 223.186 248.849C223.52 248.3 223.883 247.83 224.275 247.448C224.666 247.061 225.106 246.763 225.6 246.554C226.093 246.346 226.679 246.244 227.358 246.244C228.018 246.244 228.585 246.35 229.053 246.561C229.521 246.769 229.945 247.075 230.318 247.467C230.693 247.863 231.043 248.342 231.369 248.914C231.696 249.486 232.046 250.126 232.421 250.844L239.446 264.298H234.452L231.74 259.578H222.781L220.293 264.298L220.296 264.301ZM225.136 254.955H229.414L227.286 251.11L225.136 254.955ZM267.606 246.269V250.795H246.596V259.798H267.606V264.298H247.84C247.089 264.298 246.359 264.169 245.651 263.902C244.937 263.64 244.305 263.275 243.747 262.809C243.193 262.343 242.744 261.785 242.406 261.137C242.068 260.488 241.901 259.77 241.901 258.992V252.921C241.901 251.791 242.051 250.809 242.353 249.968C242.654 249.132 243.098 248.439 243.682 247.893C244.266 247.342 244.984 246.934 245.831 246.665C246.674 246.401 247.65 246.267 248.747 246.267H267.61L267.606 246.269ZM274.626 246.244V252.873H291.286V246.244H295.861V264.298H291.286V257.472H274.626V264.298H270.052V246.244H274.626ZM314.499 246.244H323.849L308.31 255.288L323.972 264.298H314.501L306.33 259.627C305.945 259.411 305.6 259.203 305.294 258.994C304.989 258.786 304.715 258.566 304.475 258.339C304.238 258.105 304.025 257.852 303.838 257.579C303.65 257.301 303.483 256.988 303.34 256.641V264.298H298.3V246.244H303.34V254.024C303.506 253.681 303.694 253.373 303.893 253.09C304.097 252.812 304.329 252.553 304.586 252.307C304.847 252.067 305.144 251.83 305.48 251.603C305.813 251.379 306.193 251.138 306.626 250.895L314.499 246.246V246.244ZM331.578 264.298H326.409L333.434 250.712C333.788 250.019 334.135 249.398 334.469 248.847C334.802 248.298 335.166 247.828 335.558 247.446C335.949 247.059 336.389 246.76 336.882 246.552C337.376 246.343 337.962 246.241 338.64 246.241C339.3 246.241 339.868 246.348 340.336 246.559C340.806 246.767 341.23 247.073 341.6 247.464C341.976 247.86 342.325 248.34 342.652 248.912C342.979 249.484 343.328 250.123 343.704 250.841L350.728 264.296H345.735L343.025 259.576H334.066L331.578 264.296V264.298ZM336.417 254.952H340.695L338.566 251.108L336.417 254.952Z" fill="#2B2A29"/>
</g>
<defs>
<clipPath id="clip0_106_34">
<rect width="377.953" height="264.567" fill="white"/>
</clipPath>
</defs>
</svg>
