<svg width="100" height="70" viewBox="0 0 100 70" fill="none" xmlns="http://www.w3.org/2000/svg">
<g clip-path="url(#clip0_106_34)">
<path fill-rule="evenodd" clip-rule="evenodd" d="M52.9556 12.8257C60.3695 15.6147 66.2011 21.6332 68.7339 29.1684L65.6655 30.0196C65.2991 27.9789 65.4737 24.818 64.4338 23.414C63.9649 22.781 63.0708 22.1038 62.0039 21.9261C61.5222 21.8458 58.7057 21.8219 58.2761 21.9261C57.1853 22.1902 56.9641 23.6481 57.9844 24.1935C58.6873 24.5692 60.7666 24.1874 61.6871 24.4049C62.9023 24.6924 62.8337 27.1204 63.0341 28.9993L63.1462 30.4755C63.0525 31.0075 59.0471 31.8011 55.6018 32.7234C55.6894 31.931 55.7348 31.1257 55.7348 30.3101C55.7348 29.2701 55.6618 28.2473 55.5215 27.2466C56.3837 26.9151 56.2851 25.7967 56.2832 24.7353C56.2759 19.6262 56.4064 16.866 53.6402 13.5672C53.4306 13.3172 53.2026 13.069 52.9556 12.8263V12.8257ZM69.4043 31.5241C69.864 33.4771 70.1085 35.5129 70.1085 37.6063C70.1085 38.5825 70.0551 39.5471 69.9516 40.4958L68.1229 40.5074C66.0455 37.488 62.9005 35.2611 59.2327 34.3712C60.1342 34.1261 61.0418 33.8761 61.931 33.6248C63.5213 33.175 66.8489 32.2153 69.405 31.5241H69.4043ZM69.5698 42.9385L69.5422 43.0708C69.5232 43.0267 69.5036 42.9832 69.484 42.9397L69.5698 42.9385ZM53.8222 21.3549C52.1381 17.6063 49.4295 14.4172 46.0522 12.1449C49.5165 12.5438 52.7381 14.9491 53.5789 18.9092C53.7456 19.6954 53.8074 20.5295 53.8222 21.3543V21.3549ZM40.6661 51.1092C40.8242 52.2852 41.1184 53.4183 41.5314 54.492L27.6161 54.4938C24.416 54.4944 24.2818 54.6317 24.6207 51.4211C24.6629 51.021 24.7046 50.6177 24.7469 50.2126C27.5193 51.4836 30.603 52.1921 33.8522 52.1921C36.2318 52.1921 38.5219 51.8109 40.6661 51.1086V51.1092ZM42.773 56.999C44.5177 59.8272 47.1669 62.0376 50.3181 63.2265C48.1842 63.7811 45.9456 64.0771 43.6383 64.0771C36.6669 64.0771 30.3254 61.3819 25.5987 56.9763C25.7617 56.9904 25.9303 56.9984 26.1049 57.0002C28.24 57.0217 30.3891 56.9978 32.5254 56.9984C35.9413 56.999 39.3571 56.999 42.773 56.999ZM22.0315 52.898C20.5258 50.774 19.3241 48.4183 18.4931 45.8947C19.6507 47.0358 20.9352 48.0488 22.3226 48.911C22.1651 50.3616 22.0431 51.7999 22.0315 52.898Z" fill="#346CD4"/>
<path fill-rule="evenodd" clip-rule="evenodd" d="M33.8516 8.4275C36.7502 8.4275 39.5171 8.9913 42.0487 10.0153C38.9527 10.8788 36.7894 12.9225 35.4743 15.0974C34.5336 16.6528 34.0232 18.3699 33.9263 20.4639C33.8651 21.7864 33.5868 26.317 34.2959 26.988C35.0723 27.7234 36.252 27.2307 36.3819 26.2195C36.7282 23.5243 35.687 19.9761 37.3918 16.7649C39.2953 13.1799 42.7828 11.7668 46.0541 12.1443C46.5455 12.4752 47.0229 12.8251 47.485 13.1934C45.0214 15.4909 43.2075 18.4759 42.3502 21.8434C40.1495 21.8648 38.4128 21.8955 38.3258 21.9212C36.9904 22.314 37.1559 24.1978 38.5678 24.3467C38.9319 24.3853 40.2335 24.4019 41.8948 24.4037C41.8317 25.0141 41.7992 25.6343 41.7992 26.2612C41.7992 27.5628 41.939 28.832 42.2031 30.0545C42.1443 30.0993 42.0854 30.1459 42.0266 30.1937C41.2495 30.8249 40.5944 31.6062 40.1311 32.784C39.8027 32.6921 39.3038 32.4494 38.9815 32.3079C38.6328 32.1547 38.1242 31.8372 37.7418 32.1075C37.1308 32.5389 37.6082 33.7057 37.9593 34.1396C38.0298 34.2266 38.0917 34.2793 38.1444 34.3657L37.9317 34.4846C37.2466 34.9124 37.5941 36.4383 40.4608 36.271C40.5399 36.3886 40.6741 36.5786 40.7691 36.6779C40.9082 36.8238 41.0645 36.8789 41.0927 37.1259C41.1766 37.8515 40.2709 37.3453 38.585 39.1463C37.7007 40.0913 36.9273 41.8378 37.2638 43.6677C37.8754 46.996 41.8029 48.1315 44.7831 48.2755C45.2874 48.3 45.8071 48.3025 46.3341 48.2817C42.7938 50.7452 38.4925 52.1908 33.8522 52.1908C30.603 52.1908 27.5193 51.4818 24.7469 50.2114C24.9038 48.6996 25.0631 47.1657 25.2635 45.6796C26.1319 39.2346 26.673 32.2325 27.4985 25.7623C27.8073 23.3405 30.6098 24.8211 32.4654 24.2848C33.2976 24.044 33.7008 22.9838 32.9832 22.2582C32.2956 21.5627 28.3552 21.7478 27.3342 22.1829C25.6435 22.9029 25.19 23.9288 24.9651 26.1221C24.7714 28.0151 24.5569 29.8823 24.3339 31.779C23.8859 35.5944 23.5004 39.3909 23.0396 43.2228C22.9152 44.2591 22.5745 46.5982 22.3232 48.9086C16.1086 45.0484 11.9702 38.1622 11.9702 30.3082C11.9702 18.2228 21.7674 8.42628 33.8522 8.42628L33.8516 8.4275ZM42.4838 31.176C42.5438 31.3874 42.6082 31.5976 42.6762 31.8054C42.5187 32.3257 42.0284 32.993 41.5615 33.096C40.8831 33.2449 41.2164 32.2687 41.3727 32.0119C41.548 31.7245 41.9126 31.2667 42.3024 31.187C42.3722 31.1729 42.4323 31.1699 42.4838 31.176ZM49.7224 35.1526C49.9988 35.0343 50.2794 34.9246 50.5638 34.8229C49.1157 36.1576 48.7597 38.0065 49.2744 39.6053C49.071 39.5974 48.8669 39.5827 48.6634 39.5606C48.2786 39.5195 48.0837 39.4693 47.8766 39.2505C47.686 39.0495 47.5769 38.7057 47.6909 38.3705C47.8116 38.0175 48.2964 37.7736 48.7646 37.1761C49.2499 36.5566 49.5673 35.8659 49.7224 35.1526ZM55.1256 35.4455C54.9118 36.3341 54.6433 37.2019 54.3247 38.0445C54.2211 38.1309 54.1139 38.2167 53.987 38.3062C53.528 38.6297 53.0837 38.8553 52.5328 39.0789C52.3177 39.166 52.0952 39.2426 51.8673 39.3081C51.4083 38.5292 51.4052 37.5181 52.1265 36.7839C52.7528 36.1466 53.9319 35.7593 55.1256 35.4455ZM42.0842 31.9684C41.5903 31.8832 41.1325 32.7503 41.3666 32.9244C41.6264 33.118 42.2589 32.4292 42.0842 31.9684Z" fill="#7933AC"/>
<path fill-rule="evenodd" clip-rule="evenodd" d="M59.6642 8.39686C69.5306 8.39686 77.5291 16.3954 77.5291 26.2618C77.5291 27.3232 77.436 28.3625 77.2582 29.3731L73.6352 28.3846C73.6359 27.523 73.6831 28.0261 75.0564 26.8587C75.4964 26.4849 75.9395 25.82 76.1919 25.095C76.798 23.3546 76.2685 21.7018 75.3505 20.5534C73.2627 17.9422 69.0661 18.6199 67.6989 21.3893C66.2826 24.2579 68.0543 25.2752 69.1218 24.5723C70.0172 23.9827 69.3136 21.2888 71.9261 21.407C73.6493 21.4849 74.6243 23.7137 73.4943 24.9173C72.3287 26.1588 71.1846 25.6998 71.1411 28.4986L65.6643 30.0184C65.2978 27.9777 65.4725 24.8168 64.4325 23.4128C63.9637 22.7798 63.0696 22.1026 62.0027 21.9249C61.521 21.8446 58.7045 21.8207 58.2749 21.9249C57.1841 22.189 56.9629 23.6469 57.9832 24.1923C58.6861 24.568 60.7654 24.1862 61.6859 24.4037C62.9011 24.6911 62.8325 27.1191 63.0328 28.998L63.145 30.4743C63.0004 31.2973 53.4961 32.7448 51.1834 34.3283C50.9578 34.4828 50.7519 34.6482 50.5638 34.8217C50.2794 34.9234 49.9988 35.0331 49.7224 35.1514C50.0607 33.5917 49.6207 31.9243 48.452 30.6545C47.879 30.0319 46.7208 29.245 45.4584 29.158C43.9784 29.0556 43.0862 29.3811 42.2025 30.0539C41.9377 28.8314 41.7986 27.5622 41.7986 26.2606C41.7986 25.6337 41.8311 25.0135 41.8942 24.4031C45.8671 24.408 51.8967 24.3302 52.0836 24.2671C53.2063 23.8877 53.1407 22.0646 51.7588 21.8826C51.1 21.7962 46.0639 21.806 42.3496 21.8421C43.278 18.1928 45.3297 14.9933 48.115 12.6308C50.7268 13.5832 52.9084 15.7513 53.5783 18.9073C54.4135 22.8423 52.6272 27.9599 55.3616 27.2944C56.3948 27.0431 56.2839 25.8561 56.282 24.7334C56.2747 19.6243 56.4052 16.8642 53.6389 13.5654C52.8355 12.6069 51.7551 11.6748 50.4455 10.9548C53.1364 9.33019 56.2912 8.39564 59.6636 8.39564L59.6642 8.39686ZM76.6442 31.8311C75.5025 35.3132 73.3196 38.3227 70.4645 40.4933L68.1235 40.508C66.0461 37.4893 62.9017 35.2617 59.234 34.3712C60.1348 34.1267 61.0424 33.8761 61.931 33.6248C64.2279 32.9746 70.1501 31.2618 72.1345 30.8304C72.4494 30.7617 74.4607 31.2544 76.6448 31.8311H76.6442ZM42.6762 31.8066C42.6082 31.5982 42.5444 31.3887 42.4838 31.1772C42.7411 31.2079 42.7755 31.4781 42.6762 31.8066Z" fill="#FBB342"/>
<path fill-rule="evenodd" clip-rule="evenodd" d="M59.2315 34.3712C62.8999 35.2611 66.0455 37.4881 68.1235 40.5074C64.3792 40.5301 59.5784 40.5546 56.5247 40.5332C56.4763 39.6887 56.2459 38.9024 55.8046 38.1297C55.6735 37.9005 55.3236 37.3845 55.1514 37.2625C54.9982 37.3545 54.7929 37.6547 54.6151 37.8012C54.4043 37.9746 54.2315 38.1346 53.987 38.3068C53.528 38.6303 53.0837 38.8559 52.5328 39.0795C52.3177 39.1666 52.0952 39.2432 51.8673 39.3087C51.4083 38.5298 51.4052 37.5187 52.1265 36.7845C53.0733 35.8212 55.2843 35.4284 56.8973 34.9982C57.659 34.7953 58.4428 34.5851 59.2309 34.3712H59.2315ZM69.4846 42.9391C70.3168 44.8131 70.7795 46.8875 70.7795 49.0697C70.7795 57.4231 64.0078 64.1954 55.6539 64.1954C50.2077 64.1954 45.4351 61.3169 42.7718 56.9984L57.952 56.9978C60.0276 56.9978 62.1853 57.0548 64.2511 56.9923C66.2563 56.9316 67.5328 55.9223 68.0672 54.3559C68.5758 52.8662 67.2944 45.2274 67.1387 42.9893C67.9164 42.9667 68.6984 42.9507 69.484 42.9391H69.4846ZM41.5308 54.4914C40.8843 52.8086 40.5289 50.9805 40.5289 49.0697C40.5289 48.5023 40.5613 47.9428 40.622 47.3912C41.9463 47.9526 43.4575 48.2124 44.7818 48.2761C49.2076 48.49 54.8223 47.0327 56.2054 42.9495C59.0029 42.9066 62.0493 42.7945 64.6035 42.9869C64.8272 44.8566 65.046 46.7459 65.2611 48.615C66.0534 55.5013 66.6166 54.4889 59.4626 54.4889L41.5302 54.4914H41.5308ZM49.2744 39.606C49.071 39.598 48.8669 39.5833 48.6634 39.5612C48.2786 39.5202 48.0837 39.4699 47.8766 39.2511C47.686 39.0501 47.5769 38.7063 47.6909 38.3711C47.8116 38.0181 48.2964 37.7742 48.7646 37.1767C49.2499 36.5572 49.568 35.8665 49.7224 35.1532C49.9988 35.0349 50.2794 34.9252 50.5638 34.8235C49.1157 36.1582 48.759 38.0077 49.2744 39.6066V39.606Z" fill="#EE6B6C"/>
<path fill-rule="evenodd" clip-rule="evenodd" d="M49.5802 0C52.3992 0 54.6844 2.28521 54.6844 5.10418C54.6844 7.92315 52.3992 10.2084 49.5802 10.2084C46.7612 10.2084 44.476 7.92315 44.476 5.10418C44.476 2.28521 46.7612 0 49.5802 0Z" fill="#EE6B6C"/>
<path fill-rule="evenodd" clip-rule="evenodd" d="M81.2765 44.3547C82.686 44.3547 83.8289 45.4976 83.8289 46.9071C83.8289 48.3166 82.6866 49.4595 81.2765 49.4595C79.867 49.4595 78.7241 48.3166 78.7241 46.9071C78.7241 45.4976 79.8664 44.3547 81.2765 44.3547Z" fill="#EE6B6C"/>
<path fill-rule="evenodd" clip-rule="evenodd" d="M13.2063 56.8427C14.6158 56.8427 15.7587 57.9857 15.7587 59.3951C15.7587 60.8046 14.6164 61.9475 13.2063 61.9475C11.7968 61.9475 10.6539 60.8046 10.6539 59.3951C10.6539 57.9857 11.7962 56.8427 13.2063 56.8427Z" fill="#FBB342"/>
<path fill-rule="evenodd" clip-rule="evenodd" d="M2.04192 34.6642C3.16951 34.6642 4.08384 35.5785 4.08384 36.7061C4.08384 37.8337 3.16951 38.748 2.04192 38.748C0.91433 38.748 1.90735e-06 37.8337 1.90735e-06 36.7061C1.90735e-06 35.5785 0.91433 34.6642 2.04192 34.6642Z" fill="#7933AC"/>
<path fill-rule="evenodd" clip-rule="evenodd" d="M94.8958 25.9407C97.7148 25.9407 100 28.2259 100 31.0449C100 33.5268 98.2283 35.5951 95.8806 36.0541C94.8915 34.2229 92.5162 33.3858 90.0901 32.7699C89.8964 32.2313 89.791 31.6503 89.791 31.0449C89.791 28.2259 92.0762 25.9407 94.8952 25.9407H94.8958Z" fill="#346CD4"/>
<path fill-rule="evenodd" clip-rule="evenodd" d="M40.1311 32.7853C39.8027 32.6933 39.3038 32.4507 38.9815 32.3091C38.6328 32.1559 38.1242 31.8385 37.7418 32.1087C37.1308 32.5401 37.6082 33.707 37.9593 34.1408C38.0298 34.2278 38.0917 34.2806 38.1444 34.367L37.9317 34.4858C37.2466 34.9136 37.5941 36.4395 40.4608 36.2722C40.5399 36.3899 40.6741 36.5799 40.7691 36.6791C40.9082 36.825 41.0645 36.8801 41.0927 37.1271C41.1766 37.8527 40.2709 37.3465 38.585 39.1476C37.7007 40.0925 36.9273 41.8391 37.2638 43.669C37.8754 46.9972 41.8029 48.1327 44.7831 48.2768C49.2088 48.4906 54.8235 47.0333 56.2066 42.9501C55.5099 42.9612 54.8284 42.9673 54.1739 42.9642C51.6111 42.9501 49.8676 41.4438 49.2756 39.6066C49.0722 39.5986 48.8681 39.5839 48.6647 39.5618C48.2798 39.5208 48.0849 39.4705 47.8778 39.2518C47.6872 39.0507 47.5781 38.707 47.6921 38.3717C47.8128 38.0188 48.2976 37.7749 48.7658 37.1774C50.3125 35.2028 50.1569 32.5071 48.4532 30.6569C47.8803 30.0343 46.722 29.2475 45.4596 29.1604C43.8816 29.0514 42.971 29.4289 42.0272 30.1955C41.2502 30.8267 40.595 31.608 40.1318 32.7859L40.1311 32.7853ZM56.5247 40.5332C56.4763 39.6887 56.2459 38.9024 55.8046 38.1297C55.6735 37.9005 55.3236 37.3845 55.1514 37.2625C54.9982 37.3545 54.7929 37.6547 54.6152 37.8012C54.4043 37.9746 54.2315 38.1346 53.987 38.3068C53.528 38.6304 53.0837 38.8559 52.5328 39.0795C52.3177 39.1666 52.0952 39.2432 51.8673 39.3087C52.2294 39.9234 52.8754 40.3934 53.6726 40.4676C54.0489 40.5025 55.0956 40.5227 56.5247 40.5325V40.5332ZM42.3024 31.1877C41.9126 31.2673 41.548 31.7251 41.3727 32.0125C41.2164 32.2693 40.8831 33.2455 41.5615 33.0966C42.3826 32.9158 43.278 30.9885 42.3024 31.1877Z" fill="#FEDC58"/>
<path fill-rule="evenodd" clip-rule="evenodd" d="M42.0842 31.969C41.5903 31.8838 41.1325 32.751 41.3666 32.925C41.6264 33.1186 42.2589 32.4298 42.0842 31.969Z" fill="#FEDC58"/>
<path fill-rule="evenodd" clip-rule="evenodd" d="M71.1417 28.4998L65.6649 30.0196C65.2984 27.9789 65.4731 24.818 64.4331 23.414C63.9643 22.781 63.0702 22.1038 62.0033 21.9261C61.5216 21.8458 58.7051 21.8219 58.2755 21.9261C57.1847 22.1902 56.9635 23.6481 57.9838 24.1935C58.6867 24.5692 60.766 24.1874 61.6865 24.4049C62.9017 24.6924 62.8331 27.1204 63.0335 28.9993L63.1456 30.4755C63.001 31.2986 53.4967 32.746 51.184 34.3296C47.2276 37.0382 49.0906 42.9366 54.1733 42.9636C57.4556 42.9814 61.4138 42.7473 64.6047 42.9875C64.8284 44.8572 65.0472 46.7465 65.2623 48.6156C66.0547 55.5019 66.6178 54.4895 59.4638 54.4895L27.6161 54.4938C24.416 54.4944 24.2818 54.6317 24.6207 51.4211C24.8211 49.5263 25.0092 47.5653 25.2629 45.6808C26.1313 39.2358 26.6724 32.2337 27.4979 25.7636C27.8067 23.3417 30.6091 24.8223 32.4648 24.2861C33.297 24.0452 33.7002 22.985 32.9826 22.2595C32.295 21.5639 28.3546 21.749 27.3336 22.1841C25.6429 22.9042 25.1894 23.93 24.9645 26.1233C24.7708 28.0163 24.5563 29.8836 24.3333 31.7802C23.8853 35.5957 23.4998 39.3921 23.039 43.224C22.7822 45.3597 21.608 53.0273 22.1908 54.5735C22.7583 56.0798 24.0287 56.9794 26.1049 56.9996C28.24 57.0211 30.3891 56.9972 32.5254 56.9978C41.0007 56.999 49.4773 56.9978 57.9532 56.9978C60.0288 56.9978 62.1865 57.0548 64.2524 56.9923C66.2575 56.9316 67.534 55.9223 68.0684 54.3559C68.577 52.8662 67.2956 45.2274 67.14 42.9893C72.5971 42.8312 78.2761 42.9789 83.7584 42.9789C86.244 42.9789 89.6721 43.1732 92.0444 42.9544C94.1813 42.7577 96.0001 40.975 96.2967 38.9355C97.0689 33.6273 90.8426 33.0555 86.7288 31.9555L73.6359 28.3846C73.6365 27.523 73.6837 28.0261 75.057 26.8587C75.497 26.4849 75.9401 25.82 76.1925 25.095C76.7986 23.3546 76.2691 21.7018 75.3511 20.5534C73.2633 17.9421 69.0667 18.6199 67.6995 21.3893C66.2832 24.2579 68.0549 25.2752 69.1224 24.5723C70.0178 23.9827 69.3142 21.2888 71.9267 21.407C73.65 21.4849 74.625 23.7137 73.4949 24.9173C72.3293 26.1588 71.1852 25.6998 71.1417 28.4986V28.4998ZM38.3252 21.9218C36.9898 22.3146 37.1553 24.1984 38.5672 24.3473C39.8014 24.4779 51.8182 24.3584 52.0836 24.2683C53.2063 23.889 53.1407 22.0658 51.7588 21.8838C50.7096 21.7459 38.5574 21.8532 38.3252 21.9218ZM43.7995 9.67153C39.7536 10.1514 37.0241 12.534 35.4737 15.098C34.533 16.6534 34.0226 18.3705 33.9257 20.4645C33.8644 21.787 33.5862 26.3176 34.2953 26.9886C35.0717 27.724 36.2514 27.2313 36.3813 26.2201C36.7275 23.5249 35.6864 19.9767 37.3912 16.7655C41.3096 9.38411 51.9445 11.2103 53.5783 18.9092C54.4135 22.8441 52.6272 27.9618 55.3616 27.2962C56.3948 27.045 56.2839 25.8579 56.282 24.7353C56.2747 19.6262 56.4052 16.866 53.6389 13.5672C51.722 11.2814 48.2345 9.14634 43.7989 9.67214L43.7995 9.67153ZM72.1332 30.8298C70.1489 31.2612 64.2266 32.9746 61.9298 33.6242C60.2629 34.0961 58.5298 34.5631 56.8967 34.9982C55.2837 35.4284 53.0721 35.8206 52.1259 36.7845C50.8347 38.0984 51.8636 40.2991 53.6714 40.4676C55.3726 40.6263 70.7905 40.478 73.3092 40.478C75.076 40.478 91.5786 40.6943 92.5058 40.277C94.1764 39.5263 94.4074 37.2595 92.6302 36.2514C91.6473 35.6937 84.1206 33.8222 82.4978 33.4146C81.1129 33.0672 72.8012 30.6833 72.1326 30.8291L72.1332 30.8298Z" fill="#010101"/>
<path d="M6.63072 66.9451C6.85807 66.9451 7.07072 66.9849 7.26927 67.064C7.4666 67.143 7.63942 67.2515 7.78588 67.39C7.93235 67.5279 8.04694 67.6891 8.13029 67.8723C8.21363 68.0549 8.2553 68.251 8.2553 68.4606C8.2553 68.6732 8.20995 68.8693 8.11926 69.0495C8.02856 69.2297 7.90906 69.3847 7.75892 69.5153C7.60878 69.6458 7.43719 69.7475 7.24354 69.8204C7.04927 69.8927 6.84949 69.9295 6.64236 69.9295H1.22564V68.7321H7.01863V68.1628H2.54933C2.33668 68.1628 2.13323 68.126 1.93651 68.0518C1.74041 67.9783 1.5676 67.876 1.41684 67.7442C1.26547 67.6124 1.14597 67.455 1.05528 67.2729C0.96458 67.0909 0.919231 66.8912 0.919231 66.6742C0.919231 66.5192 0.943131 66.3733 0.991544 66.2397C1.03996 66.1061 1.10675 65.9842 1.19132 65.8751C1.27528 65.7654 1.37456 65.668 1.49038 65.584C1.60498 65.5001 1.72877 65.429 1.86175 65.3714C1.99473 65.3131 2.13384 65.269 2.27785 65.2378C2.4237 65.2077 2.56894 65.1924 2.71479 65.1924H7.92989V66.3641H2.22822V66.9469H6.63072V66.9451ZM8.9006 65.1587H15.6925V66.369H12.9078V69.9289H11.7036V66.369H8.89999V65.1587H8.9006ZM19.0575 68.5194L16.3366 65.1526H17.8717L19.628 67.3336L21.396 65.1526H22.9029L20.2543 68.5194V69.9295H19.0569V68.5194H19.0575ZM30.2335 68.68V69.9289H25.0282C24.8407 69.9289 24.658 69.8891 24.4803 69.8094C24.3026 69.7297 24.1451 69.6219 24.0066 69.4871C23.8693 69.3522 23.7584 69.196 23.6745 69.0176C23.5899 68.8393 23.5482 68.6542 23.5482 68.46V65.1397H24.7972V68.6806H30.2329L30.2335 68.68ZM30.8806 66.2054C30.8806 66.0522 30.9143 65.9064 30.9817 65.7685C31.0485 65.6306 31.138 65.5086 31.2502 65.4051C31.3611 65.3003 31.4885 65.2175 31.6319 65.155C31.7753 65.0938 31.923 65.0625 32.0775 65.0625C32.4225 65.0625 32.7559 65.2182 33.0764 65.5276L36.3298 68.7315V65.1722H37.5469V68.661C37.5469 68.8442 37.5199 69.017 37.466 69.18C37.4133 69.3418 37.3342 69.4834 37.2331 69.6041C37.1308 69.7261 37.0058 69.8223 36.8587 69.8934C36.711 69.9657 36.5437 70.0012 36.3562 70.0012C36.2655 70.0012 36.1815 69.9926 36.1037 69.9743C36.0252 69.9571 35.9486 69.9289 35.8708 69.8903C35.7942 69.8523 35.7133 69.8039 35.6294 69.7457C35.5454 69.6862 35.4516 69.6164 35.3487 69.533L32.0909 66.358V69.9289H30.8806V66.206V66.2054ZM39.5606 69.9295H38.1928L40.0515 66.3347C40.1452 66.1515 40.2372 65.9873 40.3254 65.8414C40.4137 65.6962 40.5099 65.5718 40.6134 65.4706C40.717 65.3683 40.8334 65.2892 40.964 65.2341C41.0945 65.1789 41.2495 65.152 41.4291 65.152C41.6037 65.152 41.7539 65.1802 41.8777 65.2359C42.0015 65.2911 42.1136 65.372 42.2123 65.4755C42.3116 65.5803 42.4041 65.7072 42.4905 65.8586C42.5769 66.0099 42.6694 66.1791 42.7687 66.369L44.6274 69.9289H43.3062L42.5886 68.68H40.2182L39.56 69.9289L39.5606 69.9295ZM40.8414 67.4568H41.9733L41.4101 66.4395L40.8414 67.4568ZM53.7676 65.1526H56.2416L52.1302 67.5456L56.2741 69.9295H53.7682L51.6062 68.6935C51.5045 68.6365 51.4132 68.5813 51.3323 68.5262C51.2514 68.471 51.1791 68.4128 51.1153 68.3527C51.0528 68.2908 50.9964 68.224 50.9468 68.1517C50.8972 68.0782 50.853 67.9955 50.815 67.9035V69.9295H49.4816V65.1526H50.815V67.2111C50.8592 67.1204 50.9088 67.0388 50.9615 66.9641C51.0154 66.8905 51.0767 66.8219 51.1447 66.7569C51.214 66.6932 51.2924 66.6307 51.3813 66.5707C51.4695 66.5112 51.57 66.4475 51.6846 66.3831L53.7676 65.1532V65.1526ZM58.2866 69.9295H56.9187L58.7774 66.3347C58.8712 66.1515 58.9631 65.9873 59.0514 65.8414C59.1396 65.6962 59.2358 65.5718 59.3394 65.4706C59.4429 65.3683 59.5594 65.2892 59.6899 65.2341C59.8204 65.1789 59.9755 65.152 60.155 65.152C60.3297 65.152 60.4798 65.1802 60.6036 65.2359C60.7274 65.2911 60.8396 65.372 60.9382 65.4755C61.0375 65.5803 61.13 65.7072 61.2164 65.8586C61.3029 66.0099 61.3954 66.1791 61.4947 66.369L63.3534 69.9289H62.0321L61.3145 68.68H58.9441L58.2859 69.9289L58.2866 69.9295ZM59.5673 67.4568H60.6992L60.136 66.4395L59.5673 67.4568ZM70.804 65.1587V66.3562H65.2451V68.7382H70.804V69.9289H65.5742C65.3757 69.9289 65.1826 69.8946 64.9951 69.8241C64.8063 69.7549 64.639 69.658 64.4914 69.5349C64.3449 69.4117 64.226 69.264 64.1365 69.0924C64.0471 68.9208 64.0029 68.7308 64.0029 68.5249V66.9187C64.0029 66.6197 64.0428 66.3598 64.1224 66.1374C64.2021 65.9162 64.3198 65.7329 64.4742 65.5883C64.6286 65.4425 64.8186 65.3346 65.0429 65.2635C65.266 65.1936 65.524 65.1581 65.8144 65.1581H70.8052L70.804 65.1587ZM72.6615 65.152V66.9059H77.0695V65.152H78.2798V69.9289H77.0695V68.1229H72.6615V69.9289H71.4512V65.152H72.6615ZM83.2112 65.152H85.6851L81.5737 67.545L85.7176 69.9289H83.2118L81.0498 68.6929C80.948 68.6359 80.8567 68.5807 80.7758 68.5255C80.6949 68.4704 80.6226 68.4122 80.5589 68.3521C80.4964 68.2902 80.44 68.2234 80.3904 68.1511C80.3407 68.0776 80.2966 67.9949 80.2586 67.9029V69.9289H78.9251V65.152H80.2586V67.2104C80.3027 67.1197 80.3524 67.0382 80.4051 66.9635C80.459 66.8899 80.5203 66.8213 80.5883 66.7563C80.6576 66.6926 80.736 66.6301 80.8249 66.57C80.9131 66.5106 81.0136 66.4469 81.1282 66.3825L83.2112 65.1526V65.152ZM87.7301 69.9289H86.3623L88.221 66.3341C88.3147 66.1509 88.4067 65.9866 88.4949 65.8408C88.5832 65.6955 88.6794 65.5711 88.7829 65.47C88.8865 65.3677 89.0029 65.2886 89.1335 65.2335C89.264 65.1783 89.419 65.1514 89.5986 65.1514C89.7732 65.1514 89.9234 65.1796 90.0472 65.2353C90.1716 65.2905 90.2837 65.3714 90.3818 65.4749C90.4811 65.5797 90.5736 65.7066 90.66 65.8579C90.7464 66.0093 90.839 66.1784 90.9382 66.3684L92.7969 69.9283H91.4757L90.7587 68.6794H88.3883L87.7301 69.9283V69.9289ZM89.0103 67.4562H90.1422L89.579 66.4389L89.0103 67.4562Z" fill="#2B2A29"/>
</g>
<defs>
<clipPath id="clip0_106_34">
<rect width="100" height="70" fill="white"/>
</clipPath>
</defs>
</svg>
